<svg xmlns="http://www.w3.org/2000/svg" viewBox="0 0 24 24"><path fill="#ffc41a" d="M2 8h4v2H2z M3 11h4v2H3z"/><path fill="#fafafa" d="M12 6h8v1h-8z M10 7h2v1h-2z M20 7h1v1h-1z M9 8h1v1H9z M21 8h1v6h-1z M9 15h1v1H9z M20 15h1v1h-1z M10 16h2v1h-2z M12 17h8v1h-8z"/><path fill="#f22e2e" d="M12 7h8v1h-8z M10 8h11v1H10z M10 9h11v2H10z"/><path fill="#121212" d="M10 13h11v2H10z M10 15h10v1H10z M12 16h8v1h-8z"/><path fill="#fafafa" d="M9 11h13v2H9z"/><path fill="#121212" d="M14 11h3v2h-3z"/><path fill="#fafafa" d="M15 11.5h1v1h-1z"/></svg>